<svg id="BYU_Logo" data-name="BYU Logo" xmlns="http://www.w3.org/2000/svg" width="260" height="132.83" viewBox="0 0 260 132.83">
  <g id="Group_1207" data-name="Group 1207" transform="translate(0 78.354)">
    <path id="Path_6386" data-name="Path 6386" d="M8.313,44.6c3.537,0,5.483,1.769,5.483,4.422v.884A3.708,3.708,0,0,1,10.789,53.8h0a3.675,3.675,0,0,1,3.184,3.891V58.75c0,2.83-1.946,4.6-5.306,4.6H0V44.6ZM3.891,52.382H7.605c1.415,0,2.3-.707,2.3-1.946v-.884c0-1.238-.707-1.769-2.122-1.769H3.891Zm0,7.782H7.782c1.415,0,2.122-.707,2.122-1.946v-.884c0-1.238-.707-1.946-2.3-1.946H3.891Z" transform="translate(0 -44.069)" fill="#fff"/>
    <path id="Path_6387" data-name="Path 6387" d="M16.068,63.171H12V44.6h8.136c3.891,0,6.014,1.946,6.014,5.306v1.415A4.783,4.783,0,0,1,22.789,56.1l4.068,7.252H22.435l-3.714-6.9H16.068v6.721Zm0-9.9h3.184c1.946,0,2.83-.884,2.83-2.3V49.906c0-1.415-.884-2.3-2.83-2.3H15.891v5.66Z" transform="translate(9.224 -44.069)" fill="#fff"/>
    <path id="Path_6388" data-name="Path 6388" d="M28.268,44.6V63.348H24.2V44.6Z" transform="translate(18.603 -44.069)" fill="#fff"/>
    <path id="Path_6389" data-name="Path 6389" d="M45.557,50.49V51.2H41.666v-.354a2.888,2.888,0,0,0-3.184-3.184c-2.3,0-3.714,1.769-3.714,4.245V56.15c0,2.653,1.415,4.245,3.537,4.245a3.3,3.3,0,0,0,3.537-3.361v-.707H38.482V53.5h7.252v9.9H43.965l-.531-2.83c-.884,1.769-2.476,3.184-5.66,3.184-4.068,0-7.075-2.83-7.075-7.605V51.905c0-4.6,3.007-7.605,7.782-7.605C43.081,44.477,45.557,46.776,45.557,50.49Z" transform="translate(23.599 -44.3)" fill="#fff"/>
    <path id="Path_6390" data-name="Path 6390" d="M47.568,44.6v7.429h6.544V44.6H58.18V63.348H54.112V55.566H47.568v7.782H43.5V44.6Z" transform="translate(33.439 -44.069)" fill="#fff"/>
    <path id="Path_6391" data-name="Path 6391" d="M67.273,59.711H60.552l-1.061,3.537H55.6L61.614,44.5h4.6L72.4,63.248H68.335ZM61.437,56.7h4.776l-2.3-7.605h0Z" transform="translate(42.74 -44.146)" fill="#fff"/>
    <path id="Path_6392" data-name="Path 6392" d="M74.483,44.6l4.245,12.912h0L82.8,44.6h5.66V63.348H84.918V49.2h0l-4.6,14.15H77.313L72.537,49.2h0v14.15H69V44.6Z" transform="translate(53.041 -44.069)" fill="#fff"/>
    <path id="Path_6393" data-name="Path 6393" d="M93.322,44.6l3.891,7.959L101.1,44.6h4.245l-6.19,11.5v7.075H95.09V56.1L88.9,44.6Z" transform="translate(68.338 -44.069)" fill="#fff"/>
    <path id="Path_6394" data-name="Path 6394" d="M116.141,52.259v3.714c0,5.306-3.007,7.959-7.782,7.959S100.4,61.28,100.4,55.973V52.259c0-5.306,3.007-7.959,7.959-7.959C113.135,44.3,116.141,47.13,116.141,52.259Zm-11.673,0V56.15c0,3.007,1.415,4.422,3.891,4.422s3.714-1.415,3.714-4.422V52.259c0-3.007-1.415-4.422-3.714-4.422C105.883,47.837,104.468,49.252,104.468,52.259Z" transform="translate(77.178 -44.3)" fill="#fff"/>
    <path id="Path_6395" data-name="Path 6395" d="M117.291,44.6V56.627c0,2.3,1.238,3.537,3.361,3.537s3.361-1.238,3.361-3.537V44.6H127.9V56.45c0,4.6-2.476,7.252-7.252,7.252-4.952,0-7.252-2.653-7.252-7.252V44.6Z" transform="translate(87.171 -44.069)" fill="#fff"/>
    <path id="Path_6396" data-name="Path 6396" d="M129.891,44.6l7.252,12.027h0V44.6h3.537V63.348h-3.891l-7.252-12.2h0v12.2H126V44.6Z" transform="translate(96.857 -44.069)" fill="#fff"/>
    <path id="Path_6397" data-name="Path 6397" d="M153.357,50.49V51.2h-3.891v-.354a2.888,2.888,0,0,0-3.184-3.184c-2.3,0-3.714,1.769-3.714,4.245V56.15c0,2.653,1.415,4.245,3.537,4.245a3.3,3.3,0,0,0,3.537-3.361v-.707h-3.361V53.5h7.252v9.9h-1.769l-.531-2.83c-.884,1.769-2.476,3.184-5.66,3.184-4.068,0-7.075-2.83-7.075-7.605V51.905c0-4.6,3.007-7.605,7.782-7.605C150.881,44.477,153.357,46.776,153.357,50.49Z" transform="translate(106.466 -44.3)" fill="#fff"/>
    <path id="Path_6398" data-name="Path 6398" d="M32.061,66.4v9.551c0,1.946.884,2.83,2.653,2.83s2.653-1.061,2.653-2.83V66.4h3.007v9.551c0,3.714-1.946,5.837-5.837,5.837S28.7,79.665,28.7,75.951V66.4Z" transform="translate(22.062 -27.312)" fill="#fff"/>
    <path id="Path_6399" data-name="Path 6399" d="M42.584,66.4l5.66,9.551h0V66.4h2.83V81.434H47.89l-5.66-9.728h0v9.728H39.4V66.4Z" transform="translate(30.287 -27.312)" fill="#fff"/>
    <path id="Path_6400" data-name="Path 6400" d="M53.484,66.4V81.434H50.3V66.4Z" transform="translate(38.666 -27.312)" fill="#fff"/>
    <path id="Path_6401" data-name="Path 6401" d="M59.137,66.4l3.184,10.612h0L65.5,66.4h3.361L63.913,81.611H60.729L55.6,66.577h3.537Z" transform="translate(42.74 -27.312)" fill="#fff"/>
    <path id="Path_6402" data-name="Path 6402" d="M76.858,66.4v2.83H69.784V72.59h5.483v2.653H69.784v3.537h7.075v2.83H66.6V66.577H76.858Z" transform="translate(51.196 -27.312)" fill="#fff"/>
    <path id="Path_6403" data-name="Path 6403" d="M79.384,81.434H76.2V66.4h6.544c3.184,0,4.776,1.592,4.776,4.245v1.061A4.05,4.05,0,0,1,84.867,75.6l3.184,5.837H84.513l-3.007-5.483H79.384Zm0-7.959h2.653c1.592,0,2.3-.707,2.3-1.769v-.884c0-1.061-.707-1.769-2.3-1.769H79.384Z" transform="translate(58.576 -27.312)" fill="#fff"/>
    <path id="Path_6404" data-name="Path 6404" d="M97.42,70.722v.531H94.236V70.9c0-1.061-.707-1.946-2.476-1.946-1.415,0-2.3.707-2.3,1.592,0,1.061.707,1.415,3.361,2.3,3.714,1.061,4.952,2.122,4.952,4.6,0,2.83-2.3,4.422-5.837,4.422-4.068,0-5.837-1.769-5.837-4.6v-.707h3.184v.531q0,2.122,2.653,2.122c1.592,0,2.476-.531,2.476-1.592,0-1.238-.531-1.415-3.361-2.3-3.537-.884-4.776-2.122-4.776-4.6S88.4,66.3,91.937,66.3C95.651,66.3,97.42,68.069,97.42,70.722Z" transform="translate(66.186 -27.388)" fill="#fff"/>
    <path id="Path_6405" data-name="Path 6405" d="M99.584,66.4V81.434H96.4V66.4Z" transform="translate(74.103 -27.312)" fill="#fff"/>
    <path id="Path_6406" data-name="Path 6406" d="M113.473,66.4v2.83h-4.245v12.2h-3.184V69.23H101.8V66.4Z" transform="translate(78.254 -27.312)" fill="#fff"/>
    <path id="Path_6407" data-name="Path 6407" d="M114.737,66.4l3.184,6.367,3.007-6.367h3.361l-4.952,9.2v5.66h-3.184V75.6L111.2,66.4Z" transform="translate(85.48 -27.312)" fill="#fff"/>
  </g>
  <g id="Group_1208" data-name="Group 1208" transform="translate(46.561 0)">
    <path id="Path_6408" data-name="Path 6408" d="M45.206,17.687V8.667a3.855,3.855,0,0,0,1.061.177h6.014c4.6,0,7.252.707,7.252,4.952,0,2.653-1.592,5.129-7.075,5.129H45.206Zm0,18.571V25.823H51.4c4.068,0,9.02,0,9.02,5.66,0,4.245-3.537,5.66-8.49,5.66h-6.9A2.146,2.146,0,0,0,45.206,36.258ZM30.526,3.714V42.449c0,1.238,0,1.769-.884,2.3a7.562,7.562,0,0,1-3.184.884h0c-.177,0-.177.531,0,.531H57.764c13.265,0,18.748-5.306,18.748-13.442,0-6.014-2.83-9.728-8.313-11.143-.177,0-.177-.177,0-.177,3.537-1.061,6.9-3.714,6.9-9.9C75.1,3.007,69.26,0,56.7,0H26.635c-.177,0-.177.531,0,.531h0a7.562,7.562,0,0,1,3.184.884C30.7,1.946,30.526,2.476,30.526,3.714Z" transform="translate(-26.325 0)" fill="#fff"/>
    <path id="Path_6409" data-name="Path 6409" d="M140.25,3.714c0-1.238,0-1.769.884-2.3a7.562,7.562,0,0,1,3.184-.884h0c.177,0,.177-.531,0-.531h-23.17c-.177,0-.177.531,0,.531h0a6.724,6.724,0,0,1,3.007.884c.884.531.884,1.061.884,2.3V27.061c0,5.306-3.007,9.374-9.02,9.374S107,32.367,107,27.061V3.714c0-1.238,0-1.769.884-2.3A6.724,6.724,0,0,1,110.89.531h0c.177,0,.177-.531,0-.531H88.958c-.177,0-.177.531,0,.531h0a2.348,2.348,0,0,1,1.769.531c.707.531.884,1.415.884,2.653V26.531c0,10.966,6.014,20.34,24.408,20.34s24.408-9.374,24.408-20.34V3.714Z" transform="translate(21.719 0)" fill="#fff"/>
    <path id="Path_6410" data-name="Path 6410" d="M96.676,46.163c.177,0,.177-.531,0-.531h0a7.562,7.562,0,0,1-3.184-.884c-.884-.531-.884-1.061-.884-2.3V27.769l15.918-23.7a19.671,19.671,0,0,1,2.122-2.653c.177-.177.354-.354.531-.354a2.909,2.909,0,0,1,1.769-.354h0c.177,0,.177-.531,0-.531L91.547,0c-.177,0-.177.531,0,.531h0c1.061,0,2.3,0,2.122,1.592,0,1.415-6.367,10.435-8.49,13.8a6.283,6.283,0,0,0-.707,1.592,4.37,4.37,0,0,0-.707-1.592c-3.007-4.6-8.313-12.027-8.49-13.8C75.1.531,76.336.531,77.4.531h0c.177,0,.177-.531,0-.531H54.758c-.177,0-.177.531,0,.531h0a8.73,8.73,0,0,1,2.653.531c.177,0,.531.354.531.354a7.514,7.514,0,0,1,1.946,2.476l15.918,23.7V42.449c0,1.238,0,1.769-.884,2.3a7.562,7.562,0,0,1-3.184.884h0c-.177,0-.177.531,0,.531H96.676Z" transform="translate(-4.571 0)" fill="#fff"/>
  </g>
</svg>
